<svg width="217" height="57" viewBox="0 0 217 57" fill="none" xmlns="http://www.w3.org/2000/svg">
<g clip-path="url(#clip0)">
<path d="M30.7295 45.0816V48.3379H28.8252V39.0957H32.4307C33.1247 39.0957 33.734 39.2227 34.2588 39.4766C34.7878 39.7305 35.194 40.0923 35.4775 40.562C35.7611 41.0275 35.9028 41.5586 35.9028 42.1553C35.9028 43.0609 35.5918 43.7761 34.9697 44.3008C34.3519 44.8213 33.495 45.0816 32.3989 45.0816H30.7295ZM30.7295 43.5391H32.4307C32.9342 43.5391 33.3172 43.4206 33.5796 43.1836C33.8462 42.9466 33.9795 42.6081 33.9795 42.168C33.9795 41.7152 33.8462 41.3492 33.5796 41.0699C33.313 40.7906 32.9448 40.6467 32.4751 40.6382H30.7295V43.5391ZM41 48.3379C40.9154 48.1729 40.854 47.9676 40.8159 47.7222C40.3716 48.2173 39.7939 48.4649 39.083 48.4649C38.4102 48.4649 37.8516 48.2702 37.4072 47.8809C36.9671 47.4916 36.7471 47.0007 36.7471 46.4082C36.7471 45.6804 37.0158 45.1218 37.5532 44.7325C38.0949 44.3431 38.8757 44.1464 39.8955 44.1421H40.7397V43.7486C40.7397 43.4312 40.6572 43.1773 40.4922 42.9868C40.3314 42.7964 40.0754 42.7012 39.7241 42.7012C39.4152 42.7012 39.1719 42.7753 38.9941 42.9234C38.8206 43.0715 38.7339 43.2746 38.7339 43.5327H36.8994C36.8994 43.135 37.0221 42.7668 37.2676 42.4283C37.513 42.0897 37.86 41.8252 38.3086 41.6348C38.7572 41.4401 39.2607 41.3428 39.8193 41.3428C40.6657 41.3428 41.3364 41.5565 41.8315 41.9839C42.3309 42.4071 42.5806 43.0038 42.5806 43.774V46.751C42.5848 47.4027 42.6758 47.8957 42.8535 48.23V48.3379H41ZM39.4829 47.062C39.7537 47.062 40.0034 47.0028 40.2319 46.8843C40.4604 46.7616 40.6297 46.5987 40.7397 46.3955V45.2149H40.0542C39.1359 45.2149 38.6471 45.5323 38.5879 46.167L38.5815 46.2749C38.5815 46.5034 38.6619 46.6918 38.8228 46.8399C38.9836 46.988 39.2036 47.062 39.4829 47.062ZM47.8491 43.19C47.5994 43.1561 47.3794 43.1392 47.189 43.1392C46.495 43.1392 46.04 43.3741 45.8242 43.8438V48.3379H43.9897V41.4698H45.7227L45.7734 42.2886C46.1416 41.6581 46.6515 41.3428 47.3032 41.3428C47.5063 41.3428 47.6968 41.3703 47.8745 41.4253L47.8491 43.19ZM51.2515 39.7813V41.4698H52.4258V42.8155H51.2515V46.2432C51.2515 46.4971 51.3001 46.6791 51.3975 46.7891C51.4948 46.8991 51.681 46.9541 51.9561 46.9541C52.1592 46.9541 52.339 46.9393 52.4956 46.9097V48.2998C52.1359 48.4099 51.7656 48.4649 51.3848 48.4649C50.0983 48.4649 49.4424 47.8153 49.417 46.5161V42.8155H48.4141V41.4698H49.417V39.7813H51.2515ZM55.1362 41.4698L55.1934 42.2632C55.6842 41.6496 56.3423 41.3428 57.1675 41.3428C57.8953 41.3428 58.437 41.5565 58.7925 41.9839C59.1479 42.4113 59.3299 43.0503 59.3384 43.9009V48.3379H57.5039V43.9453C57.5039 43.556 57.4193 43.2746 57.25 43.1011C57.0807 42.9234 56.7993 42.8345 56.4058 42.8345C55.8895 42.8345 55.5023 43.0546 55.2441 43.4947V48.3379H53.4097V41.4698H55.1362ZM63.896 48.4649C62.8888 48.4649 62.0679 48.156 61.4331 47.5381C60.8026 46.9203 60.4873 46.0972 60.4873 45.0689V44.8911C60.4873 44.2014 60.6206 43.5856 60.8872 43.044C61.1538 42.4981 61.5304 42.0791 62.0171 41.7871C62.508 41.4909 63.0666 41.3428 63.6929 41.3428C64.6323 41.3428 65.3708 41.639 65.9082 42.2315C66.4499 42.8239 66.7207 43.6639 66.7207 44.7515V45.5005H62.3472C62.4064 45.9491 62.5841 46.3088 62.8804 46.5796C63.1808 46.8505 63.5596 46.9859 64.0166 46.9859C64.7233 46.9859 65.2756 46.7298 65.6733 46.2178L66.5747 47.2271C66.2996 47.6164 65.9272 47.9211 65.4575 48.1411C64.9878 48.357 64.4673 48.4649 63.896 48.4649ZM63.6865 42.8282C63.3226 42.8282 63.0264 42.9509 62.7979 43.1963C62.5736 43.4418 62.4297 43.793 62.3662 44.25H64.918V44.104C64.9095 43.6978 64.7995 43.3846 64.5879 43.1646C64.3763 42.9403 64.0758 42.8282 63.6865 42.8282ZM71.6274 43.19C71.3778 43.1561 71.1577 43.1392 70.9673 43.1392C70.2733 43.1392 69.8184 43.3741 69.6025 43.8438V48.3379H67.7681V41.4698H69.501L69.5518 42.2886C69.9199 41.6581 70.4299 41.3428 71.0815 41.3428C71.2847 41.3428 71.4751 41.3703 71.6528 41.4253L71.6274 43.19ZM75.874 48.3379V39.0957H78.7178C79.5303 39.0957 80.256 39.2798 80.895 39.648C81.5382 40.0119 82.0397 40.5324 82.3994 41.2095C82.7591 41.8824 82.939 42.6483 82.939 43.5074V43.9326C82.939 44.7917 82.7612 45.5555 82.4058 46.2242C82.0545 46.8928 81.5573 47.4112 80.9141 47.7793C80.2708 48.1475 79.5451 48.3337 78.7368 48.3379H75.874ZM77.7783 40.6382V46.8081H78.6987C79.4435 46.8081 80.0127 46.5648 80.4062 46.0782C80.7998 45.5915 81.0008 44.8954 81.0093 43.9898V43.501C81.0093 42.5616 80.8146 41.8506 80.4253 41.3682C80.036 40.8815 79.4668 40.6382 78.7178 40.6382H77.7783ZM86.1445 48.3379H84.3037V41.4698H86.1445V48.3379ZM84.1958 39.6924C84.1958 39.4173 84.2868 39.1909 84.4688 39.0132C84.6549 38.8355 84.9067 38.7466 85.2241 38.7466C85.5373 38.7466 85.7869 38.8355 85.9731 39.0132C86.1593 39.1909 86.2524 39.4173 86.2524 39.6924C86.2524 39.9717 86.1572 40.2002 85.9668 40.378C85.7806 40.5557 85.533 40.6446 85.2241 40.6446C84.9152 40.6446 84.6655 40.5557 84.4751 40.378C84.2889 40.2002 84.1958 39.9717 84.1958 39.6924ZM91.521 43.19C91.2713 43.1561 91.0513 43.1392 90.8608 43.1392C90.1668 43.1392 89.7119 43.3741 89.4961 43.8438V48.3379H87.6616V41.4698H89.3945L89.4453 42.2886C89.8135 41.6581 90.3234 41.3428 90.9751 41.3428C91.1782 41.3428 91.3687 41.3703 91.5464 41.4253L91.521 43.19ZM95.4438 48.4649C94.4367 48.4649 93.6157 48.156 92.981 47.5381C92.3504 46.9203 92.0352 46.0972 92.0352 45.0689V44.8911C92.0352 44.2014 92.1685 43.5856 92.4351 43.044C92.7017 42.4981 93.0783 42.0791 93.5649 41.7871C94.0558 41.4909 94.6144 41.3428 95.2407 41.3428C96.1802 41.3428 96.9186 41.639 97.4561 42.2315C97.9977 42.8239 98.2686 43.6639 98.2686 44.7515V45.5005H93.895C93.9543 45.9491 94.132 46.3088 94.4282 46.5796C94.7287 46.8505 95.1074 46.9859 95.5645 46.9859C96.2712 46.9859 96.8234 46.7298 97.2212 46.2178L98.1226 47.2271C97.8475 47.6164 97.4751 47.9211 97.0054 48.1411C96.5356 48.357 96.0151 48.4649 95.4438 48.4649ZM95.2344 42.8282C94.8704 42.8282 94.5742 42.9509 94.3457 43.1963C94.1214 43.4418 93.9775 43.793 93.9141 44.25H96.4658V44.104C96.4574 43.6978 96.3473 43.3846 96.1357 43.1646C95.9242 42.9403 95.6237 42.8282 95.2344 42.8282ZM102.172 46.9859C102.511 46.9859 102.786 46.8928 102.998 46.7066C103.209 46.5204 103.319 46.2728 103.328 45.9639H105.048C105.044 46.4294 104.917 46.8568 104.667 47.2461C104.417 47.6312 104.075 47.9317 103.639 48.1475C103.207 48.3591 102.729 48.4649 102.204 48.4649C101.222 48.4649 100.448 48.1538 99.8809 47.5318C99.3138 46.9055 99.0303 46.0422 99.0303 44.9419V44.8213C99.0303 43.7634 99.3117 42.9191 99.8745 42.2886C100.437 41.6581 101.21 41.3428 102.191 41.3428C103.05 41.3428 103.738 41.5882 104.254 42.0791C104.775 42.5658 105.039 43.2154 105.048 44.0279H103.328C103.319 43.6724 103.209 43.3846 102.998 43.1646C102.786 42.9403 102.507 42.8282 102.16 42.8282C101.732 42.8282 101.409 42.9847 101.188 43.2979C100.973 43.6068 100.865 44.1104 100.865 44.8086V44.9991C100.865 45.7058 100.973 46.2136 101.188 46.5225C101.404 46.8314 101.732 46.9859 102.172 46.9859ZM108.292 39.7813V41.4698H109.466V42.8155H108.292V46.2432C108.292 46.4971 108.34 46.6791 108.438 46.7891C108.535 46.8991 108.721 46.9541 108.996 46.9541C109.199 46.9541 109.379 46.9393 109.536 46.9097V48.2998C109.176 48.4099 108.806 48.4649 108.425 48.4649C107.138 48.4649 106.482 47.8153 106.457 46.5161V42.8155H105.454V41.4698H106.457V39.7813H108.292ZM110.012 44.8404C110.012 44.159 110.143 43.5518 110.405 43.0186C110.668 42.4854 111.044 42.0728 111.535 41.7808C112.03 41.4888 112.604 41.3428 113.255 41.3428C114.182 41.3428 114.938 41.6263 115.521 42.1934C116.11 42.7604 116.438 43.5306 116.505 44.5039L116.518 44.9737C116.518 46.0274 116.224 46.8737 115.636 47.5127C115.048 48.1475 114.258 48.4649 113.268 48.4649C112.278 48.4649 111.486 48.1475 110.894 47.5127C110.306 46.878 110.012 46.0147 110.012 44.9229V44.8404ZM111.846 44.9737C111.846 45.6254 111.969 46.1247 112.214 46.4717C112.46 46.8145 112.811 46.9859 113.268 46.9859C113.712 46.9859 114.059 46.8166 114.309 46.4781C114.559 46.1353 114.684 45.5894 114.684 44.8404C114.684 44.2014 114.559 43.7062 114.309 43.355C114.059 43.0038 113.708 42.8282 113.255 42.8282C112.807 42.8282 112.46 43.0038 112.214 43.355C111.969 43.702 111.846 44.2416 111.846 44.9737ZM121.507 43.19C121.258 43.1561 121.038 43.1392 120.847 43.1392C120.153 43.1392 119.698 43.3741 119.482 43.8438V48.3379H117.648V41.4698H119.381L119.432 42.2886C119.8 41.6581 120.31 41.3428 120.961 41.3428C121.165 41.3428 121.355 41.3703 121.533 41.4253L121.507 43.19ZM125.075 45.7417L126.344 41.4698H128.312L125.551 49.4043L125.398 49.7661C124.988 50.6633 124.311 51.1118 123.367 51.1118C123.101 51.1118 122.83 51.0716 122.555 50.9912V49.6011L122.834 49.6075C123.181 49.6075 123.439 49.5546 123.608 49.4488C123.782 49.343 123.917 49.1673 124.015 48.9219L124.23 48.357L121.825 41.4698H123.799L125.075 45.7417Z" fill="#27318A"/>
<path d="M29.354 6.54257H33.9055V30.8577H29.354V6.54257Z" fill="#27318A"/>
<path d="M52.1596 30.859H47.6081V20.6596C47.6081 18.293 45.9434 17.2249 44.2788 17.2249C42.6141 17.2249 40.9284 18.293 40.9284 20.6596V30.859H36.3979V13.4342H40.9284V14.9631C41.7712 13.7902 43.4359 12.9525 45.1216 12.9525C48.6827 12.9525 52.1596 15.4448 52.1596 20.534V30.859Z" fill="#27318A"/>
<path d="M63.4662 26.819V30.8611H59.1676C56.0701 30.8611 54.6372 29.1856 54.6372 26.3583V17.3317V13.3106V9.39417H59.1676V13.3106H63.4662V17.3317H59.1676V25.3949C59.1676 26.2326 59.4205 26.819 60.4951 26.819H63.4662Z" fill="#27318A"/>
<path d="M69.3254 23.257C69.3254 25.3932 70.5054 26.8174 72.6547 26.8174C74.214 26.8174 75.2887 26.1053 75.7523 24.9325H80.2827C79.5663 28.5976 76.9534 30.8594 72.6547 30.8594C67.6396 30.8594 64.7949 27.6551 64.7949 22.7963V20.5344C64.7949 15.6756 67.5343 12.4713 72.6547 12.4713C77.6698 12.4713 80.5356 15.6756 80.5356 20.5344V23.257H69.3254ZM69.3254 19.592H76.0051C75.8787 17.8118 74.6776 16.618 72.6547 16.618C70.7582 16.618 69.5572 17.8118 69.3254 19.592Z" fill="#27318A"/>
<path d="M87.5788 30.8572H83.0483V13.4325H87.5788V15.3174C88.0423 14.1446 89.6016 13.0764 91.6245 13.0764H93.0574V17.4536H90.9081C89.2434 17.4536 87.5788 18.5217 87.5788 20.8883V30.8572Z" fill="#27318A"/>
<path d="M95.2021 23.025H99.859C100.091 25.0355 101.65 26.3549 104.031 26.3549C106.054 26.3549 107.487 25.6429 107.487 23.9674C107.487 22.6689 106.644 21.9569 104.979 21.4961L100.934 20.428C97.225 19.4646 95.4339 16.8676 95.4339 13.4329C95.4339 8.67879 99.1425 6.54257 103.315 6.54257C108.077 6.54257 111.069 9.28615 111.533 13.3073H106.897C106.539 11.7575 104.853 11.0454 103.315 11.0454C101.397 11.0454 100.091 11.7575 100.091 13.4329C100.091 14.8571 101.165 15.4435 102.472 15.7995L106.412 16.8676C110.1 17.8101 112.017 20.072 112.017 24.0931C112.017 28.3655 109.278 30.9625 104.031 30.9625C98.7843 30.8578 95.4339 27.7791 95.2021 23.025Z" fill="#27318A"/>
<path d="M122.874 32.3818C121.926 34.9997 121.673 37.0103 118.47 37.0103H115.12V32.9892H117.037C117.859 32.9892 118.112 32.6331 118.217 32.1514L118.702 30.7273L112.38 13.3025H117.143L121.083 24.4443L125.023 13.3025H129.786L122.874 32.3818Z" fill="#27318A"/>
<path d="M129.428 24.9264H133.959C134.211 26.2249 135.75 26.937 137.183 26.937C138.025 26.937 139.458 26.7066 139.458 25.6385C139.458 24.9264 138.974 24.5704 137.899 24.3191L134.211 23.5023C132.294 23.0206 129.913 21.5965 129.913 18.1618C129.913 14.7271 133.01 12.8212 136.593 12.8212C140.175 12.8212 143.146 14.4967 143.399 18.5178H138.742C138.51 17.4497 137.541 16.8633 136.361 16.8633C135.033 16.8633 134.317 17.324 134.317 18.1618C134.317 18.8738 134.928 19.2299 135.644 19.4602L139.564 20.298C141.481 20.7797 143.862 22.0782 143.862 25.6385C143.862 29.534 140.638 30.9581 137.077 30.9581C133.369 30.8534 129.555 28.9475 129.428 24.9264Z" fill="#27318A"/>
<path d="M160.57 23.2556C160.57 25.3918 161.75 26.8159 163.9 26.8159C165.459 26.8159 166.534 26.1039 166.997 24.9311H171.528C170.811 28.5961 168.198 30.858 163.9 30.858C158.885 30.858 156.04 27.6537 156.04 22.7948V20.533C156.04 15.6741 158.779 12.4698 163.9 12.4698C168.915 12.4698 171.781 15.6741 171.781 20.533V23.2556H160.57ZM160.57 19.5905H167.25C167.124 17.8103 165.923 16.6166 163.9 16.6166C161.877 16.6166 160.802 17.8103 160.57 19.5905Z" fill="#27318A"/>
<path d="M189.776 30.859H185.246V20.6596C185.246 18.293 183.581 17.2249 182.043 17.2249C180.484 17.2249 178.819 18.293 178.819 20.6596V30.859H174.289V13.4342H178.819V14.8583C179.641 13.6646 181.327 12.9525 182.759 12.9525C184.529 12.9525 186.215 13.6646 187.522 15.2144C188.828 13.6646 190.619 12.9525 193 12.9525C197.425 12.9525 200.755 15.4448 200.755 20.534V30.859H196.224V20.6596C196.224 18.293 194.56 17.2249 193 17.2249C191.462 17.2249 189.776 18.293 189.776 20.6596V30.859Z" fill="#27318A"/>
<path d="M202.415 24.9338H206.966C207.198 26.2322 208.736 26.9443 210.169 26.9443C211.012 26.9443 212.445 26.7139 212.445 25.6458C212.445 24.9338 211.96 24.5777 210.885 24.3264L207.198 23.5096C205.28 23.0279 202.899 21.6038 202.899 18.1691C202.899 14.7344 205.997 12.8286 209.579 12.8286C213.161 12.8286 216.132 14.504 216.385 18.5251H211.728C211.496 17.457 210.527 16.8706 209.347 16.8706C208.02 16.8706 207.324 17.3314 207.324 18.1691C207.324 18.8812 207.914 19.2372 208.631 19.4676L212.571 20.3053C214.467 20.787 216.848 22.0855 216.848 25.6458C216.848 29.5413 213.646 30.9654 210.063 30.9654C206.481 30.8607 202.667 28.9549 202.415 24.9338Z" fill="#27318A"/>
<path d="M154.122 26.819V30.8611H149.823C146.725 30.8611 145.292 29.1856 145.292 26.3583V17.3317V13.3106V9.39417H149.823V13.3106H154.122V17.3317H149.823V25.3949C149.823 26.2326 150.076 26.819 151.151 26.819H154.122Z" fill="#27318A"/>
<path d="M6.70905 7.24904L0.0292969 3.94V46.3711L13.5152 53.1358V45.6591L6.70905 42.35V7.24904Z" fill="#27318B"/>
<path d="M13.5054 45.6637L20.1851 48.9936V6.54162L6.69922 -0.202118V7.25369L13.5054 10.5837V45.6637Z" fill="#00A99D"/>
</g>
<defs>
<clipPath id="clip0">
<rect width="217" height="56" fill="white" transform="translate(0 0.337921)"/>
</clipPath>
</defs>
</svg>
